HIERARCHY
ROOT Pelvis
{
	OFFSET 0.000000 0.000000 0.000000
	CHANNELS 6 Xposition Yposition Zposition Zrotation Yrotation Xrotation 
	JOINT Left_hip
	{
		OFFSET 0.068973 -0.091024 -0.007589
		CHANNELS 3 Zrotation Yrotation Xrotation
		JOINT Left_knee
		{
			OFFSET 0.036482 -0.391037 -0.003979
			CHANNELS 3 Zrotation Yrotation Xrotation
			JOINT Left_ankle
			{
				OFFSET -0.012239 -0.415469 -0.043440
				CHANNELS 3 Zrotation Yrotation Xrotation
				JOINT Left_foot
				{
					OFFSET 0.023806 -0.058558 0.118702
					CHANNELS 3 Zrotation Yrotation Xrotation
					End Site
					{
						OFFSET 0.000000 0.000000 0.000000
					}
				}
			}
		}
	}
	JOINT Right_hip
	{
		OFFSET -0.066552 -0.090468 -0.003847
		CHANNELS 3 Zrotation Yrotation Xrotation
		JOINT Right_knee
		{
			OFFSET -0.042435 -0.398340 -0.006400
			CHANNELS 3 Zrotation Yrotation Xrotation
			JOINT Right_ankle
			{
				OFFSET 0.014931 -0.415421 -0.041327
				CHANNELS 3 Zrotation Yrotation Xrotation
				JOINT Right_foot
				{
					OFFSET -0.021472 -0.049410 0.121889
					CHANNELS 3 Zrotation Yrotation Xrotation
					End Site
					{
						OFFSET 0.000000 0.000000 0.000000
					}
				}
			}
		}
	}
	JOINT Spine1
	{
		OFFSET -0.002904 0.105700 -0.022855
		CHANNELS 3 Zrotation Yrotation Xrotation
		JOINT Spine2
		{
			OFFSET 0.004179 0.132554 -0.002501
			CHANNELS 3 Zrotation Yrotation Xrotation
			JOINT Spine3
			{
				OFFSET 0.001987 0.049603 0.025988
				CHANNELS 3 Zrotation Yrotation Xrotation
				JOINT Neck
				{
					OFFSET -0.003935 0.211336 -0.045638
					CHANNELS 3 Zrotation Yrotation Xrotation
					JOINT Head
					{
						OFFSET 0.003906 0.065991 0.051018
						CHANNELS 3 Zrotation Yrotation Xrotation
						End Site
						{
							OFFSET 0.000000 0.000000 0.000000
						}
					}
				}
				JOINT Left_collar
				{
					OFFSET 0.072882 0.117751 -0.036270
					CHANNELS 3 Zrotation Yrotation Xrotation
					JOINT Left_shoulder
					{
						OFFSET 0.082118 0.032630 -0.005771
						CHANNELS 3 Zrotation Yrotation Xrotation
						JOINT Left_elbow
						{
							OFFSET 0.263305 -0.015144 -0.028095
							CHANNELS 3 Zrotation Yrotation Xrotation
							JOINT Left_wrist
							{
								OFFSET 0.250741 0.010115 -0.000759
								CHANNELS 3 Zrotation Yrotation Xrotation
								JOINT Left_palm
								{
									OFFSET 0.080683 -0.009989 -0.013613
									CHANNELS 3 Zrotation Yrotation Xrotation
									End Site
									{
										OFFSET 0.000000 0.000000 0.000000
									}
								}
							}
						}
					}
				}
				JOINT Right_collar
				{
					OFFSET -0.074811 0.116132 -0.040385
					CHANNELS 3 Zrotation Yrotation Xrotation
					JOINT Right_shoulder
					{
						OFFSET -0.085089 0.032943 -0.007484
						CHANNELS 3 Zrotation Yrotation Xrotation
						JOINT Right_elbow
						{
							OFFSET -0.254763 -0.014219 -0.020321
							CHANNELS 3 Zrotation Yrotation Xrotation
							JOINT Right_wrist
							{
								OFFSET -0.256597 0.009233 -0.005063
								CHANNELS 3 Zrotation Yrotation Xrotation
								JOINT Right_palm
								{
									OFFSET -0.080528 -0.007219 -0.010379
									CHANNELS 3 Zrotation Yrotation Xrotation
									End Site
									{
										OFFSET 0.000000 0.000000 0.000000
									}
								}
							}
						}
					}
				}
			}
		}
	}
}
MOTION
Frames: 12
Frame Time: 0.100000
0.000000 0.000000 0.000000 173.119452 25.369423 -23.362987 10.384815 8.319065 19.257098 -3.557664 -1.866117 -8.360520 0.948863 8.199329 3.064053 -2.055229 8.838790 -4.178027 -7.643630 -8.857042 11.434408 2.684676 -5.412520 1.698032 0.225007 -10.861679 2.181742 2.145130 1.135047 2.408704 0.695048 0.872405 3.283581 -0.170234 -2.308525 9.965965 0.126242 -1.682200 1.191214 1.601068 -1.743967 7.572213 1.843680 -0.045690 -0.003403 -23.780670 -3.123136 8.027289 -48.304862 -7.893855 6.991907 -1.231017 -26.157557 20.900165 -8.189046 0.616298 1.015469 -8.949921 -4.805923 -12.319065 23.349621 6.029444 7.772910 51.573578 3.326513 11.690725 -4.304792 22.233285 6.945150 6.352229 -1.847617 3.389214 12.357158 8.405013 -7.662372 
0.024042 -0.003423 0.021331 172.935237 26.293122 -23.310525 11.894089 7.745203 18.906010 -2.653466 -1.733123 -7.919148 -0.942967 8.376722 4.205175 -0.642602 8.209968 -5.054884 -6.194636 -9.073295 13.282824 3.638035 -5.561261 -0.257099 -1.054434 -10.687126 0.639285 3.194393 0.399495 3.678285 0.414575 1.015273 2.338721 -0.014275 -2.600599 9.631684 0.426637 -1.730244 0.979629 1.524328 -1.761319 8.189181 2.237288 -0.423131 0.571078 -23.174419 -3.138523 7.814555 -48.139395 -8.508305 7.397906 -0.697395 -31.058427 20.599338 -7.093407 -0.159913 -0.402305 -8.668079 -4.584137 -11.349758 23.085095 5.610582 7.636384 51.859070 2.845362 11.554905 -4.979408 24.689891 7.203251 5.891540 -1.428675 2.110972 11.923025 8.148767 -7.097042 
0.049642 -0.005703 0.038313 173.053360 26.697858 -23.339558 13.151551 7.353339 17.269234 -1.831573 -1.313941 -4.958533 -2.139708 8.515737 4.728437 0.013416 7.996515 -5.766407 -4.978967 -9.292412 14.710557 4.592114 -5.356555 -1.778967 -2.485485 -10.051136 -0.447800 4.515349 -0.448566 5.162829 0.209549 1.383433 2.311544 0.110508 -2.797184 9.346722 0.584534 -1.619436 0.711957 1.992255 -3.422964 9.452721 3.010181 -2.291093 1.945113 -23.134529 -3.421616 7.772122 -47.997505 -8.906703 7.608236 0.036386 -33.009601 19.583261 -6.828304 -0.299369 -1.281633 -8.386478 -4.357819 -10.701745 23.063376 6.402862 7.384615 51.572595 3.814080 11.360196 -5.053256 25.556426 7.272868 5.664808 -1.360924 1.388196 11.538377 7.991738 -6.527368 
0.069370 -0.005020 0.044842 173.022889 27.781877 -24.317719 13.546760 6.158624 12.455358 -1.070181 -1.956439 4.995278 -1.740514 8.250149 3.246702 -0.984924 8.625241 -6.758633 -4.263626 -9.249689 16.044372 5.109796 -5.003179 -1.826610 -4.794072 -9.896218 -1.417731 6.273030 -1.523991 7.374334 0.285433 2.064394 3.976156 0.301980 -3.304993 9.197698 0.242605 -1.606915 0.599169 3.148385 -11.434051 11.836168 5.184429 -10.176984 4.465865 -23.907329 -4.081793 8.419556 -47.912785 -9.643540 7.701664 0.975005 -32.648600 18.169171 -8.237104 0.599117 -1.981479 -7.713314 -3.852382 -9.644411 23.458360 8.903843 6.898227 50.996405 5.281286 10.822940 -4.646648 23.980611 7.386849 5.854692 -2.174393 1.932172 10.537121 7.968929 -5.393257 
0.075144 -0.005088 0.045564 173.662707 27.116610 -24.787269 13.571550 3.981668 7.861606 -2.503201 -5.468731 13.601123 -0.850398 6.035701 0.619260 -2.147156 9.374728 -6.933779 -4.512640 -9.028169 17.493746 5.357191 -3.549572 -2.925832 -5.684509 -9.658074 -1.161714 6.728612 -1.914697 8.776875 0.243180 3.240657 5.217553 0.973003 -3.461118 9.587593 0.262453 -1.290350 0.530256 4.192914 -20.909360 13.951669 7.203202 -19.589391 6.007033 -24.971297 -3.672568 9.268348 -48.839181 -9.181667 8.033760 1.578040 -31.599414 17.433997 -9.411392 1.365953 -3.301306 -7.376980 -3.483954 -8.892518 23.913945 11.599552 6.613654 49.528033 6.848337 10.565628 -3.732071 22.851296 8.616584 5.899492 -2.999644 3.520478 9.921484 8.172729 -4.449911 
0.069182 -0.005649 0.047240 174.815538 23.559023 -23.464896 13.533181 2.437349 7.509238 -2.261561 -9.498562 7.740720 -2.897355 4.990538 1.307014 0.521676 8.948555 -6.349766 -4.976828 -7.818138 16.879317 5.509555 -1.584975 -3.712756 -5.104071 -8.863658 -0.989089 6.463353 -2.538584 9.265431 0.551919 3.508045 4.906862 1.639804 -3.096643 9.628431 0.715018 -0.836869 0.477710 4.983383 -23.684931 14.080062 7.125522 -23.704150 6.344097 -24.704254 -1.860097 9.586951 -50.665050 -6.248464 9.524670 0.534110 -29.448770 18.834503 -10.197126 0.810945 -3.785411 -7.464627 -3.166712 -10.282336 23.708863 12.543151 6.027280 49.250714 9.228727 11.117729 -3.191747 23.453168 9.802822 5.742280 -2.551018 4.023976 9.562855 7.878099 -4.801049 
0.049310 -0.004591 0.045247 175.236577 19.348906 -22.740149 13.109801 2.382312 6.949466 -1.937859 -10.278739 4.949471 -3.866565 5.054451 2.566618 2.296029 8.811582 -6.121326 -5.536240 -6.701237 15.903431 5.309318 0.319467 -3.303792 -4.570802 -7.812645 -0.823603 6.178296 -3.061855 9.018158 1.174898 3.274817 4.867601 2.374596 -3.413935 9.998827 1.217568 -0.908911 0.516142 5.301171 -23.060080 13.433313 6.319741 -23.891062 5.727098 -24.710317 -1.320816 10.133710 -51.384875 -3.348227 10.570683 -1.648915 -25.485245 21.329518 -11.036247 0.884567 -2.324945 -8.546107 -3.297049 -12.729964 23.998999 12.835569 5.651680 49.463449 11.192880 11.692598 -2.984217 26.061237 10.088173 5.196936 -1.811831 3.467598 10.339189 7.911535 -5.856853 
0.016741 -0.004196 0.042964 175.521519 15.006623 -22.048799 11.978227 4.154543 8.572142 -1.729882 -8.022963 4.403655 -1.514774 6.334694 0.749182 1.171461 9.192816 -4.992720 -6.359771 -5.846114 14.295766 4.220392 1.366502 -2.069079 -2.907661 -6.879015 0.194066 5.104125 -2.645513 7.655325 1.346055 2.664317 4.662100 2.747369 -3.308404 9.961678 1.299955 -1.039014 0.836458 5.136370 -21.788098 13.698537 5.030303 -22.326289 6.084958 -24.608840 -0.690449 10.367149 -51.401989 -2.162960 10.034073 -2.677286 -22.034532 22.495920 -12.016472 1.692152 -0.507202 -9.525171 -3.665610 -14.186954 24.423071 12.117970 5.577570 50.644925 11.644441 12.581052 -2.817975 27.926711 10.333712 5.170430 -1.469659 3.581404 11.533012 8.340973 -6.792664 
-0.019977 -0.004406 0.037861 176.681117 11.072983 -21.629074 10.269641 5.042293 11.142022 -2.977267 -7.621612 2.590223 1.152715 6.934573 -0.572595 -0.958063 10.178129 -3.946795 -7.889188 -4.810203 9.999469 2.387274 2.186458 4.085278 -0.361626 -6.720753 0.904941 3.316363 -0.947809 4.922241 0.288069 2.228573 5.402604 2.445859 -2.345099 10.217181 0.640448 -0.920050 1.025847 5.357860 -19.221851 13.232876 3.932028 -20.447725 6.400769 -24.644908 -0.499526 9.858276 -49.420017 -3.565889 8.802044 -1.589521 -20.350192 20.094135 -11.032184 2.767209 1.177414 -10.226291 -4.176186 -14.588413 25.715295 10.875683 5.446165 51.682994 10.907113 12.782853 -4.897415 27.169007 6.790611 4.883672 -1.861107 3.970363 12.459210 8.769537 -7.477949 
-0.048416 -0.000841 0.028398 177.353207 7.323775 -22.340294 8.970559 6.330668 14.434788 -3.566693 -8.081229 0.078204 4.260617 7.929299 -1.698473 -3.491210 11.509912 -3.303691 -8.451239 -3.820592 1.259212 1.582772 1.302164 19.032078 0.618549 -8.254883 1.861405 3.148233 1.510092 1.947039 -1.149601 0.938875 7.919002 1.896389 -0.780742 10.508787 -0.272512 -0.930257 1.002076 6.327613 -16.203200 12.157113 2.650169 -18.058065 7.475313 -25.479461 -1.887513 9.203109 -45.081398 -6.447547 6.881915 -0.035711 -20.186625 15.465434 -8.855558 3.901764 2.700118 -10.174105 -4.685984 -14.807242 27.066020 11.357804 5.745154 50.396163 10.497994 13.331413 -5.632980 26.613312 3.434420 4.372842 -2.317777 5.066726 12.615781 8.979913 -7.683343 
-0.065101 -0.006761 0.030270 176.405630 5.855936 -22.522181 9.430896 7.056600 17.445175 -3.141906 -8.186592 -4.214613 3.371721 8.109623 -0.179556 -2.642678 11.401429 -4.089538 -7.487442 -4.329849 -4.078429 1.677322 -3.941348 26.786955 0.408236 -10.880999 2.385523 2.812554 2.510982 1.168434 -1.794521 -0.799146 8.554156 1.634538 -0.866907 9.344287 -0.335908 -1.913364 0.420056 6.030768 -13.706834 14.532502 2.235611 -14.665531 9.225917 -23.859572 -2.702446 8.923620 -42.527474 -9.402591 4.820897 2.415241 -26.924028 9.112230 -6.782096 2.597181 -1.191538 -8.986251 -4.525742 -13.750227 24.922872 9.801437 5.033688 49.927391 9.467249 12.550569 -9.156315 34.465790 -2.488133 3.642215 -1.051266 -0.212223 11.402948 8.405005 -6.285604 
-0.076360 -0.009482 0.040023 176.026409 4.057708 -21.693471 9.240732 7.308213 17.972425 -2.613276 -7.200092 -4.870538 2.802056 8.569473 -0.676634 -2.456361 11.265804 -4.085927 -5.918160 -3.567958 -6.862307 1.854183 -5.296779 23.957206 2.372636 -9.660954 2.508505 0.932633 2.251374 1.498766 -2.105754 -1.941905 8.627378 1.558048 -1.526487 6.555718 -0.243548 -2.701668 -0.594634 5.486257 -11.769179 17.313474 2.255339 -11.843321 10.598156 -20.981201 -2.364525 7.216574 -40.978682 -13.291000 2.278486 10.829003 -36.895132 -3.127561 -3.105637 1.956431 -7.521670 -8.946540 -4.392403 -11.137471 21.373804 6.676139 2.311886 49.890527 10.116398 9.720321 -22.123816 43.194205 -18.669169 1.884512 -0.457438 -9.488604 11.433266 8.203445 -4.862662 
